<svg width="40" height="40" viewBox="0 0 40 40" fill="none" xmlns="http://www.w3.org/2000/svg">
<g id="&#228;&#186;&#145;&#231;&#171;&#175;&#233;&#147;&#190;&#230;&#142;&#165; 1">
<path id="Vector" d="M27.5237 16.0474C26.9999 12.5236 23.9046 9.76172 20.238 9.76172C16.5237 9.76172 13.4761 12.476 12.9523 16.0474H12.5713C8.66655 16.0474 5.47607 19.2379 5.47607 23.1427C5.47607 27.0474 8.66655 30.2379 12.5713 30.2379H27.5713C31.4761 30.2379 34.6665 27.0474 34.6665 23.1427C34.6189 19.2379 31.4285 16.0474 27.5237 16.0474ZM17.238 27.9998L14.4285 25.1903C12.8094 23.5712 12.8094 20.9046 14.4285 19.2379C16.0475 17.6189 18.7142 17.6189 20.3808 19.2379L23.1904 22.0474L21.857 23.3808L19.0475 20.5712C18.1427 19.6665 16.6665 19.6665 15.7618 20.5712C14.857 21.476 14.857 22.9522 15.7618 23.857L18.5713 26.6665L17.238 27.9998ZM26.2856 25.4284C25.4761 26.2379 24.3808 26.6665 23.3332 26.6665C22.238 26.6665 21.1904 26.2379 20.3808 25.4284L17.5713 22.6189L18.9046 21.2855L21.7142 24.0951C22.6189 24.9998 24.0951 24.9998 24.9999 24.0951C25.9046 23.1903 25.9046 21.7141 24.9999 20.8093L22.1904 17.9998L23.5237 16.6665L26.3332 19.476C27.9046 21.1427 27.9046 23.8093 26.2856 25.4284Z" fill="url(#paint0_linear_16986_10749)" fill-opacity="0.9"/>
</g>
<defs>
<linearGradient id="paint0_linear_16986_10749" x1="20.0937" y1="9.76172" x2="20.0937" y2="28.1156" gradientUnits="userSpaceOnUse">
<stop stop-color="#888888" stop-opacity="0.5"/>
<stop offset="0.5" stop-color="#888888"/>
<stop offset="1" stop-color="#888888" stop-opacity="0.5"/>
</linearGradient>
</defs>
</svg>
