<svg width="19" height="19" viewBox="0 0 19 19" fill="none" xmlns="http://www.w3.org/2000/svg">
<g clip-path="url(#clip0_2276_18979)">
<rect x="0.646973" y="0.404297" width="18" height="18" rx="9" fill="#5F59E0"/>
<path d="M9.65429 4.91772V4.92219C9.65915 4.94456 9.65915 4.97139 9.65915 4.99823V8.22338C9.65429 8.24127 9.63969 8.24575 9.62509 8.25469C9.5229 8.29943 9.42558 8.33968 9.32339 8.37994C9.18227 8.43809 9.03628 8.50072 8.89516 8.55887L8.38421 8.77358C8.2431 8.83173 8.10198 8.88988 7.96572 8.94803C7.80027 9.0196 7.62996 9.0867 7.46451 9.15827C7.32339 9.21642 7.18227 9.27905 7.03628 9.3372C6.9195 9.3864 6.80271 9.43114 6.69078 9.48034C6.68105 9.48481 6.67132 9.48929 6.66159 9.48929C6.65672 9.48929 6.65672 9.48929 6.65186 9.48481L6.78324 9.28352C7.03628 8.89883 7.28446 8.51861 7.5375 8.13392C7.80514 7.72239 8.07765 7.31086 8.34529 6.89933C8.59346 6.51911 8.8465 6.13889 9.09468 5.75867C9.27473 5.48133 9.45964 5.204 9.63969 4.92666C9.64456 4.91772 9.64942 4.91324 9.64942 4.9043H9.65429C9.64942 4.90877 9.65429 4.91324 9.65429 4.91772Z" fill="white"/>
<path d="M12.6421 9.48541L12.647 9.48988L11.9316 9.87905L9.68346 11.1002C9.67373 11.1047 9.664 11.1092 9.65913 11.1136C9.64453 11.1136 9.64453 11.1002 9.64453 11.0957V11.0555V8.29108C9.64453 8.27766 9.64453 8.25977 9.6494 8.24635C9.65426 8.22845 9.66886 8.23293 9.68346 8.2374C9.74672 8.26424 9.81485 8.29108 9.87811 8.31792C10.0679 8.39843 10.2577 8.47895 10.4475 8.55499C10.6129 8.62209 10.7735 8.69366 10.9389 8.76076C11.1044 8.82786 11.2698 8.89943 11.4353 8.96652C11.5764 9.02468 11.7224 9.0873 11.8635 9.14545C12.0046 9.2036 12.1506 9.26623 12.2917 9.32438C12.4037 9.36911 12.5156 9.41831 12.6275 9.46305C12.6275 9.47646 12.6324 9.48094 12.6421 9.48541Z" fill="white"/>
<path d="M9.65429 13.8908C9.65429 13.8952 9.64942 13.8997 9.64942 13.9042H9.64456C9.64456 13.8952 9.63482 13.8908 9.62996 13.8818C9.32825 13.4927 9.02655 13.099 8.72485 12.7099C8.41828 12.3117 8.10684 11.9092 7.80027 11.511C7.50344 11.1264 7.20173 10.7372 6.9049 10.3525C6.82704 10.2496 6.74918 10.1512 6.67132 10.0483C6.66645 10.0394 6.66159 10.0349 6.65186 10.0215C6.66645 10.0215 6.67619 10.0304 6.68105 10.0349C7.10441 10.263 7.5229 10.4912 7.94626 10.7193C8.43288 10.9832 8.91463 11.2471 9.40125 11.511L9.64942 11.6452C9.65915 11.6542 9.65915 11.6631 9.65915 11.6721V13.8281C9.65915 13.8505 9.65915 13.8729 9.65429 13.8908Z" fill="white"/>
<path d="M6.64697 9.49385V9.48938C6.80269 9.42676 6.95354 9.35966 7.10926 9.29703C7.30877 9.21204 7.50829 9.13153 7.7078 9.04654C7.85865 8.98391 8.01437 8.91682 8.16522 8.85419C8.38907 8.76025 8.60804 8.67079 8.83189 8.57686C8.98274 8.51423 9.13359 8.45161 9.28931 8.38451C9.39636 8.33978 9.50829 8.29505 9.61534 8.25031C9.62507 8.24584 9.63967 8.24137 9.64454 8.23242C9.64941 8.23242 9.64941 8.2369 9.64454 8.24137V11.0818C9.64454 11.0952 9.63967 11.1087 9.64941 11.1176C9.63967 11.131 9.62994 11.1176 9.62507 11.1131C9.58128 11.0908 9.53748 11.0684 9.49369 11.0416C8.55452 10.5316 7.61048 10.0172 6.6713 9.50727C6.66644 9.5028 6.65671 9.49833 6.64697 9.49385Z" fill="white"/>
<path d="M12.6324 10.0215H12.6372C12.6372 10.0304 12.6275 10.0394 12.6227 10.0483C11.7273 11.2069 10.8319 12.3699 9.93652 13.5284C9.84406 13.6492 9.74674 13.77 9.65428 13.8908C9.64941 13.8863 9.64941 13.8818 9.64941 13.8774V13.8505V11.681V11.6408C9.85379 11.5289 10.0533 11.4216 10.2577 11.3098C11.046 10.8803 11.8343 10.4554 12.6178 10.026C12.6227 10.0304 12.6275 10.026 12.6324 10.0215Z" fill="white"/>
<path d="M9.64938 8.24096V8.23201V8.20518V4.95766C9.64938 4.94424 9.64451 4.93529 9.65425 4.92188C10.6421 6.42933 11.6299 7.93231 12.6129 9.43977C12.6226 9.45319 12.6372 9.47108 12.6421 9.48897C12.574 9.46661 12.5107 9.43529 12.4474 9.40846C12.3696 9.37714 12.2869 9.34136 12.209 9.31005C12.1603 9.28768 12.1068 9.26979 12.0581 9.24742C11.9754 9.21164 11.8927 9.18032 11.81 9.14454C11.7613 9.12665 11.7126 9.10428 11.664 9.08191L11.3428 8.94772C11.2893 8.92535 11.2358 8.90299 11.1774 8.88062L10.9438 8.78669C10.8951 8.76879 10.8465 8.74643 10.7978 8.72406L10.4766 8.58987C10.4231 8.5675 10.3696 8.54514 10.3112 8.52277L10.0776 8.42883C10.0241 8.40647 9.97541 8.3841 9.92189 8.36174C9.82943 8.32148 9.73697 8.28122 9.63965 8.24543C9.65425 8.24096 9.64938 8.24096 9.64938 8.24096Z" fill="white"/>
</g>
<defs>
<clipPath id="clip0_2276_18979">
<rect width="18" height="18" fill="white" transform="translate(0.646973 0.404297)"/>
</clipPath>
</defs>
</svg>