<svg width="40" height="40" viewBox="0 0 40 40" fill="none" xmlns="http://www.w3.org/2000/svg">
<g id="&#229;&#174;&#137;&#229;&#133;&#168;">
<g id="Group 242" opacity="0.7">
<g id="Vector">
<path d="M8.356 16.6679C8.19209 16.6694 8.03071 16.6267 7.88824 16.544C7.78374 16.4842 7.69201 16.4037 7.61841 16.3072C7.54481 16.2108 7.49081 16.1004 7.45959 15.9824C7.42836 15.8644 7.42053 15.7413 7.43656 15.6202C7.45258 15.4992 7.49214 15.3826 7.55291 15.2772C8.72413 13.2848 12.2876 8.63429 20.0633 8.63429C23.433 8.63429 26.3884 9.5364 28.8432 11.3146C30.8637 12.774 31.9961 14.4259 32.5355 15.2215C32.6039 15.3218 32.652 15.435 32.6768 15.5545C32.7016 15.674 32.7028 15.7974 32.6801 15.9173C32.6575 16.0373 32.6115 16.1514 32.5449 16.253C32.4784 16.3545 32.3925 16.4415 32.2925 16.5087C32.088 16.6465 31.839 16.6977 31.5981 16.6515C31.3572 16.6052 31.1435 16.4652 31.0022 16.2611C30.026 14.8302 27.0493 10.4763 20.0633 10.4763C13.2444 10.4763 10.1614 14.4829 9.15726 16.201C9.07658 16.3445 8.95977 16.4634 8.81891 16.5455C8.67805 16.6276 8.51824 16.6698 8.356 16.6679Z" fill="url(#paint0_linear_16986_10746)" fill-opacity="0.9"/>
<path d="M23.9778 34.8579C23.9003 34.8588 23.8229 34.8499 23.7476 34.8313C18.1071 33.4072 16.001 27.6602 15.9154 27.4212L15.902 27.3686C15.8558 27.2026 14.7241 23.2617 16.4615 20.9535C17.2579 19.9009 18.4692 19.361 20.0687 19.361C21.5558 19.361 22.6286 19.8322 23.3661 20.8073C23.9736 21.6036 24.2166 22.5856 24.4517 23.5316C24.9455 25.5018 25.3021 26.5364 27.3548 26.6429C28.2563 26.6893 28.8486 26.1519 29.1845 25.6943C30.0927 24.4467 30.2507 22.4128 29.566 20.6172C28.6864 18.2997 25.5646 13.9303 20.0602 13.9303C17.7105 13.9303 15.5515 14.7 13.8202 16.1463C12.3871 17.3444 11.2517 19.0359 10.705 20.7745C9.69113 24.0115 11.0209 29.0997 11.0337 29.1462C11.0647 29.2646 11.0722 29.3881 11.0556 29.5096C11.0391 29.631 10.9988 29.7478 10.9373 29.8531C10.8758 29.9584 10.7942 30.0501 10.6973 30.1227C10.6004 30.1954 10.4903 30.2475 10.3733 30.2761C10.1371 30.3402 9.88557 30.3073 9.67277 30.1846C9.45998 30.062 9.30279 29.8592 9.23491 29.6198C9.17416 29.3876 7.75388 23.9607 8.9251 20.2197C10.2008 16.1661 14.1379 12.0797 20.062 12.0797C22.7999 12.0797 25.3866 13.0282 27.5456 14.8194C29.2173 16.2126 30.5829 18.0837 31.2973 19.9541C32.2055 22.3422 31.9619 25.0226 30.6783 26.7735C29.823 27.9413 28.605 28.5518 27.2558 28.4855C23.7409 28.306 23.1091 25.8052 22.6487 23.9811C22.1748 22.11 21.8717 21.2079 20.062 21.2079C19.0682 21.2079 18.3702 21.4865 17.9358 22.0636C17.3435 22.853 17.2974 24.087 17.363 24.9823C17.4061 25.6061 17.5098 26.2239 17.6728 26.8268C17.8174 27.1983 19.7 31.9039 24.2087 33.0425C24.3252 33.0707 24.4351 33.1221 24.5319 33.1939C24.6288 33.2657 24.7107 33.3564 24.7729 33.4607C24.835 33.5651 24.8763 33.6809 24.8941 33.8016C24.912 33.9223 24.9061 34.0454 24.8769 34.1638C24.8219 34.3637 24.7042 34.5397 24.5419 34.665C24.3796 34.7903 24.1815 34.858 23.9778 34.8579Z" fill="url(#paint1_linear_16986_10746)" fill-opacity="0.9"/>
<path d="M16.7427 34.4411C16.6162 34.4414 16.4911 34.4157 16.3746 34.3656C16.2581 34.3155 16.1527 34.242 16.0647 34.1495C13.8073 31.7348 12.5304 29.0346 12.0499 25.6584V25.6404C11.7802 23.4052 12.175 20.2407 14.1098 18.065C15.538 16.4595 17.5457 15.6435 20.0668 15.6435C23.0483 15.6435 25.3913 17.0564 26.8523 19.7231C27.9124 21.6605 28.1226 23.591 28.128 23.6702C28.1391 23.7924 28.1265 23.9157 28.0908 24.0329C28.0551 24.1501 27.9971 24.259 27.9201 24.3533C27.8431 24.4476 27.7486 24.5255 27.6419 24.5825C27.5353 24.6396 27.4187 24.6746 27.2988 24.6857C27.0569 24.7124 26.8143 24.6411 26.6235 24.4872C26.4326 24.3332 26.3089 24.109 26.2789 23.8628C26.1189 22.7044 25.7511 21.586 25.1939 20.5633C24.0616 18.5269 22.3388 17.4917 20.0601 17.4917C18.0919 17.4917 16.5519 18.0953 15.4925 19.2872C13.9653 21.0054 13.67 23.6523 13.8796 25.4033C14.3006 28.3888 15.4263 30.7639 17.4139 32.8864C17.4969 32.9744 17.5616 33.0784 17.6044 33.1924C17.6471 33.3064 17.6669 33.428 17.6625 33.5499C17.6582 33.6718 17.6299 33.7916 17.5793 33.9022C17.5286 34.0128 17.4567 34.1118 17.3678 34.1935C17.1965 34.3517 16.9739 34.4399 16.7427 34.4411Z" fill="url(#paint2_linear_16986_10746)" fill-opacity="0.9"/>
<path d="M27.1388 31.778C25.1645 31.778 23.486 31.2208 22.1429 30.1131C19.4444 27.8971 19.1419 24.2881 19.1285 24.1358C19.1095 23.8857 19.1887 23.6383 19.3488 23.4478C19.5088 23.2573 19.7365 23.1394 19.9817 23.12C20.227 23.1006 20.4698 23.1814 20.6567 23.3445C20.8436 23.5075 20.9593 23.7396 20.9783 23.9896C20.985 24.0429 21.2547 26.995 23.3347 28.6952C24.5655 29.697 26.2105 30.0945 28.2377 29.8623C28.48 29.8324 28.724 29.9014 28.9165 30.0543C29.109 30.2073 29.2343 30.4316 29.2649 30.6784C29.2782 30.8003 29.2675 30.9237 29.2335 31.0413C29.1995 31.159 29.1428 31.2686 29.0668 31.3637C28.9908 31.4588 28.897 31.5375 28.7909 31.5952C28.6847 31.653 28.5683 31.6886 28.4485 31.7C28.0138 31.7517 27.5765 31.7778 27.1388 31.778ZM28.6988 7.17329C27.9285 6.66248 25.1973 5.14307 20.0616 5.14307C14.6709 5.14307 11.933 6.82161 11.3273 7.24821C11.2873 7.27323 11.2499 7.30227 11.2155 7.33489C11.2119 7.33846 11.2072 7.34065 11.2022 7.34108C11.1054 7.42715 11.0278 7.53324 10.9745 7.65228C10.9212 7.77132 10.8934 7.90058 10.893 8.03144C10.8946 8.15411 10.92 8.27523 10.9677 8.38788C11.0154 8.50053 11.0844 8.60248 11.1708 8.68789C11.2572 8.7733 11.3592 8.8405 11.4712 8.88563C11.5831 8.93076 11.7027 8.95294 11.823 8.95089C12.0159 8.95076 12.2041 8.89048 12.3624 8.77815C12.3886 8.75833 14.745 6.99373 20.0635 6.99373C25.3819 6.99373 27.7511 8.75214 27.7766 8.76514C27.9384 8.88739 28.1348 8.95259 28.3361 8.95089C28.4566 8.95277 28.5762 8.93039 28.6881 8.88503C28.8001 8.83968 28.9021 8.77223 28.9884 8.68657C29.0747 8.60091 29.1436 8.49873 29.191 8.38588C29.2385 8.27303 29.2636 8.15173 29.2649 8.02896C29.265 7.84507 29.2111 7.66535 29.1102 7.51288C29.0094 7.36041 28.8661 7.24216 28.6988 7.17329Z" fill="url(#paint3_linear_16986_10746)" fill-opacity="0.9"/>
</g>
</g>
</g>
<defs>
<linearGradient id="paint0_linear_16986_10746" x1="20.0818" y1="5.14307" x2="20.0818" y2="31.778" gradientUnits="userSpaceOnUse">
<stop stop-color="#888888" stop-opacity="0.5"/>
<stop offset="0.5" stop-color="#888888"/>
<stop offset="1" stop-color="#888888" stop-opacity="0.5"/>
</linearGradient>
<linearGradient id="paint1_linear_16986_10746" x1="20.0818" y1="5.14307" x2="20.0818" y2="31.778" gradientUnits="userSpaceOnUse">
<stop stop-color="#888888" stop-opacity="0.5"/>
<stop offset="0.5" stop-color="#888888"/>
<stop offset="1" stop-color="#888888" stop-opacity="0.5"/>
</linearGradient>
<linearGradient id="paint2_linear_16986_10746" x1="20.0818" y1="5.14307" x2="20.0818" y2="31.778" gradientUnits="userSpaceOnUse">
<stop stop-color="#888888" stop-opacity="0.5"/>
<stop offset="0.5" stop-color="#888888"/>
<stop offset="1" stop-color="#888888" stop-opacity="0.5"/>
</linearGradient>
<linearGradient id="paint3_linear_16986_10746" x1="20.0818" y1="5.14307" x2="20.0818" y2="31.778" gradientUnits="userSpaceOnUse">
<stop stop-color="#888888" stop-opacity="0.5"/>
<stop offset="0.5" stop-color="#888888"/>
<stop offset="1" stop-color="#888888" stop-opacity="0.5"/>
</linearGradient>
</defs>
</svg>
