<svg width="20" height="20" viewBox="0 0 20 20" fill="none" xmlns="http://www.w3.org/2000/svg">
<g id="chart-bar" clip-path="url(#clip0_16986_10846)">
<path id="accent" d="M5.21749 12.2676H1.73923C1.4991 12.2676 1.30444 12.3663 1.30444 12.4882V16.4585C1.30444 16.5803 1.4991 16.6791 1.73923 16.6791H5.21749C5.45762 16.6791 5.65227 16.5803 5.65227 16.4585V12.4882C5.65227 12.3663 5.45762 12.2676 5.21749 12.2676Z" fill="url(#paint0_linear_16986_10846)"/>
<path id="accent_2" d="M11.7395 5.71289H8.2612C8.02107 5.71289 7.82642 5.8573 7.82642 6.03544V16.3571C7.82642 16.5352 8.02107 16.6796 8.2612 16.6796H11.7395C11.9796 16.6796 12.1742 16.5352 12.1742 16.3571V6.03544C12.1742 5.8573 11.9796 5.71289 11.7395 5.71289Z" fill="url(#paint1_linear_16986_10846)"/>
<path id="accent_3" d="M18.2605 13.3066H14.7822C14.5421 13.3066 14.3474 13.4324 14.3474 13.5877V16.3978C14.3474 16.553 14.5421 16.6788 14.7822 16.6788H18.2605C18.5006 16.6788 18.6952 16.553 18.6952 16.3978V13.5877C18.6952 13.4324 18.5006 13.3066 18.2605 13.3066Z" fill="url(#paint2_linear_16986_10846)"/>
<path id="accent_4" d="M17.8986 17.915H2.10145C1.86145 17.915 0 18.6131 0 18.8531C0 19.0931 0.194783 19.2879 0.434783 19.2879H19.5652C19.8052 19.2879 20 19.0931 20 18.8531C20 18.6131 18.1385 17.915 17.8986 17.915Z" fill="url(#paint3_linear_16986_10846)"/>
<g id="glass" filter="url(#filter0_bi_16986_10846)">
<path d="M5.21749 7.21582H1.73923C1.4991 7.21582 1.30444 7.42765 1.30444 7.68897V16.2057C1.30444 16.467 1.4991 16.6788 1.73923 16.6788H5.21749C5.45762 16.6788 5.65227 16.467 5.65227 16.2057V7.68897C5.65227 7.42765 5.45762 7.21582 5.21749 7.21582Z" fill="#1D1D1D" fill-opacity="0.05"/>
<path d="M5.21749 7.21582H1.73923C1.4991 7.21582 1.30444 7.42765 1.30444 7.68897V16.2057C1.30444 16.467 1.4991 16.6788 1.73923 16.6788H5.21749C5.45762 16.6788 5.65227 16.467 5.65227 16.2057V7.68897C5.65227 7.42765 5.45762 7.21582 5.21749 7.21582Z" fill="url(#paint4_linear_16986_10846)" fill-opacity="0.2"/>
<path d="M1.73923 7.36582H5.21749C5.36308 7.36582 5.50227 7.4983 5.50227 7.68897V16.2057C5.50227 16.3964 5.36308 16.5288 5.21749 16.5288H1.73923C1.59363 16.5288 1.45444 16.3964 1.45444 16.2057V7.68897C1.45444 7.4983 1.59363 7.36582 1.73923 7.36582Z" stroke="#C8A6FF" stroke-opacity="0.1" stroke-width="0.3"/>
</g>
<g id="glass_2" filter="url(#filter1_bi_16986_10846)">
<path d="M11.7395 0.712891H8.2612C8.02107 0.712891 7.82642 0.923138 7.82642 1.18249V16.2096C7.82642 16.4689 8.02107 16.6792 8.2612 16.6792H11.7395C11.9796 16.6792 12.1742 16.4689 12.1742 16.2096V1.18249C12.1742 0.923138 11.9796 0.712891 11.7395 0.712891Z" fill="#1D1D1D" fill-opacity="0.05"/>
<path d="M11.7395 0.712891H8.2612C8.02107 0.712891 7.82642 0.923138 7.82642 1.18249V16.2096C7.82642 16.4689 8.02107 16.6792 8.2612 16.6792H11.7395C11.9796 16.6792 12.1742 16.4689 12.1742 16.2096V1.18249C12.1742 0.923138 11.9796 0.712891 11.7395 0.712891Z" fill="url(#paint5_linear_16986_10846)" fill-opacity="0.2"/>
<path d="M8.2612 0.862891H11.7395C11.8861 0.862891 12.0242 0.99489 12.0242 1.18249V16.2096C12.0242 16.3972 11.8861 16.5292 11.7395 16.5292H8.2612C8.11458 16.5292 7.97642 16.3972 7.97642 16.2096V1.18249C7.97642 0.99489 8.11458 0.862891 8.2612 0.862891Z" stroke="#C8A6FF" stroke-opacity="0.1" stroke-width="0.3"/>
</g>
<g id="glass_3" filter="url(#filter2_bi_16986_10846)">
<path d="M18.2605 11.001H14.7822C14.5421 11.001 14.3474 11.2128 14.3474 11.4741V16.2056C14.3474 16.467 14.5421 16.6788 14.7822 16.6788H18.2605C18.5006 16.6788 18.6952 16.467 18.6952 16.2056V11.4741C18.6952 11.2128 18.5006 11.001 18.2605 11.001Z" fill="#1D1D1D" fill-opacity="0.05"/>
<path d="M18.2605 11.001H14.7822C14.5421 11.001 14.3474 11.2128 14.3474 11.4741V16.2056C14.3474 16.467 14.5421 16.6788 14.7822 16.6788H18.2605C18.5006 16.6788 18.6952 16.467 18.6952 16.2056V11.4741C18.6952 11.2128 18.5006 11.001 18.2605 11.001Z" fill="url(#paint6_linear_16986_10846)" fill-opacity="0.2"/>
<path d="M14.7822 11.151H18.2605C18.4061 11.151 18.5452 11.2835 18.5452 11.4741V16.2056C18.5452 16.3963 18.4061 16.5288 18.2605 16.5288H14.7822C14.6366 16.5288 14.4974 16.3963 14.4974 16.2056V11.4741C14.4974 11.2835 14.6366 11.151 14.7822 11.151Z" stroke="#C8A6FF" stroke-opacity="0.1" stroke-width="0.3"/>
</g>
</g>
<defs>
<filter id="filter0_bi_16986_10846" x="-4.69556" y="1.21582" width="16.3479" height="21.4629" filterUnits="userSpaceOnUse" color-interpolation-filters="sRGB">
<feFlood flood-opacity="0" result="BackgroundImageFix"/>
<feGaussianBlur in="BackgroundImageFix" stdDeviation="3"/>
<feComposite in2="SourceAlpha" operator="in" result="effect1_backgroundBlur_16986_10846"/>
<feBlend mode="normal" in="SourceGraphic" in2="effect1_backgroundBlur_16986_10846" result="shape"/>
<feColorMatrix in="SourceAlpha" type="matrix" values="0 0 0 0 0 0 0 0 0 0 0 0 0 0 0 0 0 0 127 0" result="hardAlpha"/>
<feOffset dy="2"/>
<feGaussianBlur stdDeviation="1.5"/>
<feComposite in2="hardAlpha" operator="arithmetic" k2="-1" k3="1"/>
<feColorMatrix type="matrix" values="0 0 0 0 1 0 0 0 0 1 0 0 0 0 1 0 0 0 0.15 0"/>
<feBlend mode="normal" in2="shape" result="effect2_innerShadow_16986_10846"/>
</filter>
<filter id="filter1_bi_16986_10846" x="1.82642" y="-5.28711" width="16.3479" height="27.9658" filterUnits="userSpaceOnUse" color-interpolation-filters="sRGB">
<feFlood flood-opacity="0" result="BackgroundImageFix"/>
<feGaussianBlur in="BackgroundImageFix" stdDeviation="3"/>
<feComposite in2="SourceAlpha" operator="in" result="effect1_backgroundBlur_16986_10846"/>
<feBlend mode="normal" in="SourceGraphic" in2="effect1_backgroundBlur_16986_10846" result="shape"/>
<feColorMatrix in="SourceAlpha" type="matrix" values="0 0 0 0 0 0 0 0 0 0 0 0 0 0 0 0 0 0 127 0" result="hardAlpha"/>
<feOffset dy="2"/>
<feGaussianBlur stdDeviation="1.5"/>
<feComposite in2="hardAlpha" operator="arithmetic" k2="-1" k3="1"/>
<feColorMatrix type="matrix" values="0 0 0 0 1 0 0 0 0 1 0 0 0 0 1 0 0 0 0.15 0"/>
<feBlend mode="normal" in2="shape" result="effect2_innerShadow_16986_10846"/>
</filter>
<filter id="filter2_bi_16986_10846" x="8.34741" y="5.00098" width="16.3479" height="17.6777" filterUnits="userSpaceOnUse" color-interpolation-filters="sRGB">
<feFlood flood-opacity="0" result="BackgroundImageFix"/>
<feGaussianBlur in="BackgroundImageFix" stdDeviation="3"/>
<feComposite in2="SourceAlpha" operator="in" result="effect1_backgroundBlur_16986_10846"/>
<feBlend mode="normal" in="SourceGraphic" in2="effect1_backgroundBlur_16986_10846" result="shape"/>
<feColorMatrix in="SourceAlpha" type="matrix" values="0 0 0 0 0 0 0 0 0 0 0 0 0 0 0 0 0 0 127 0" result="hardAlpha"/>
<feOffset dy="2"/>
<feGaussianBlur stdDeviation="1.5"/>
<feComposite in2="hardAlpha" operator="arithmetic" k2="-1" k3="1"/>
<feColorMatrix type="matrix" values="0 0 0 0 1 0 0 0 0 1 0 0 0 0 1 0 0 0 0.15 0"/>
<feBlend mode="normal" in2="shape" result="effect2_innerShadow_16986_10846"/>
</filter>
<linearGradient id="paint0_linear_16986_10846" x1="1.4856" y1="13.1499" x2="6.22767" y2="13.799" gradientUnits="userSpaceOnUse">
<stop stop-color="#6592E9"/>
<stop offset="1" stop-color="#566FEA"/>
</linearGradient>
<linearGradient id="paint1_linear_16986_10846" x1="8.00758" y1="7.90624" x2="12.8239" y2="8.17144" gradientUnits="userSpaceOnUse">
<stop stop-color="#6592E9"/>
<stop offset="1" stop-color="#566FEA"/>
</linearGradient>
<linearGradient id="paint2_linear_16986_10846" x1="14.5286" y1="13.9811" x2="19.2094" y2="14.8193" gradientUnits="userSpaceOnUse">
<stop stop-color="#6592E9"/>
<stop offset="1" stop-color="#566FEA"/>
</linearGradient>
<linearGradient id="paint3_linear_16986_10846" x1="0.833333" y1="18.1896" x2="5.19556" y2="27.0162" gradientUnits="userSpaceOnUse">
<stop stop-color="#6592E9"/>
<stop offset="1" stop-color="#566FEA"/>
</linearGradient>
<linearGradient id="paint4_linear_16986_10846" x1="1.4856" y1="9.10842" x2="6.29693" y2="9.41545" gradientUnits="userSpaceOnUse">
<stop stop-color="#6592E9"/>
<stop offset="1" stop-color="#5670EA"/>
</linearGradient>
<linearGradient id="paint5_linear_16986_10846" x1="8.00758" y1="3.90615" x2="12.8316" y2="4.0886" gradientUnits="userSpaceOnUse">
<stop stop-color="#6592E9"/>
<stop offset="1" stop-color="#5670EA"/>
</linearGradient>
<linearGradient id="paint6_linear_16986_10846" x1="14.5286" y1="12.1365" x2="19.3055" y2="12.6446" gradientUnits="userSpaceOnUse">
<stop stop-color="#6592E9"/>
<stop offset="1" stop-color="#5670EA"/>
</linearGradient>
<clipPath id="clip0_16986_10846">
<rect width="20" height="20" fill="white"/>
</clipPath>
</defs>
</svg>
