<svg width="24" height="24" viewBox="0 0 24 24" fill="none" xmlns="http://www.w3.org/2000/svg">
<path d="M11.4781 11.4797H4.65313C3.78359 11.4797 3.07812 10.7742 3.07812 9.90468V4.65468C3.07812 3.78515 3.78359 3.07968 4.65313 3.07968H9.90313C10.7727 3.07968 11.4781 3.78515 11.4781 4.65468V11.4797ZM5.17813 9.37968H9.37813V5.17968H5.17813V9.37968ZM19.3531 11.4797H12.5281V4.65468C12.5281 3.78515 13.2336 3.07968 14.1031 3.07968H19.3531C20.2227 3.07968 20.9281 3.78515 20.9281 4.65468V9.90468C20.9281 10.7742 20.2227 11.4797 19.3531 11.4797ZM14.6281 9.37968H18.8281V5.17968H14.6281V9.37968ZM9.90313 20.9297H4.65313C3.78359 20.9297 3.07812 20.2242 3.07812 19.3547V14.1047C3.07812 13.2352 3.78359 12.5297 4.65313 12.5297H11.4781V19.3547C11.4781 20.2242 10.7727 20.9297 9.90313 20.9297ZM5.17813 18.8297H9.37813V14.6297H5.17813V18.8297ZM12.5281 12.5297H15.6781V15.6797H12.5281V12.5297Z" fill="white"/>
<path d="M15.1484 15.1547H18.2984V18.3047H15.1484V15.1547Z" fill="white"/>
<path d="M17.7734 12.5297H20.9234V15.6797H17.7734V12.5297ZM12.5234 17.7797H15.6734V20.9297H12.5234V17.7797ZM17.7734 17.7797H20.9234V20.9297H17.7734V17.7797Z" fill="white"/>
</svg>
