<svg width="18" height="18" viewBox="0 0 18 18" fill="none" xmlns="http://www.w3.org/2000/svg">
<g id="Solid / redo">
<path id="Vector" d="M15.75 8.25C15.3 8.25 15 8.55 15 9C15 11.175 13.875 13.125 12 14.175C9.15 15.825 5.475 14.85 3.825 12C2.175 9.15 3.15 5.475 6 3.825C8.475 2.4 11.475 2.925 13.35 4.875H11.55C11.1 4.875 10.8 5.175 10.8 5.625C10.8 6.075 11.1 6.375 11.55 6.375H14.925C15.375 6.375 15.675 6.075 15.675 5.625V2.25C15.675 1.8 15.375 1.5 14.925 1.5C14.475 1.5 14.175 1.8 14.175 2.25V3.6C12.75 2.25 10.95 1.5 9 1.5C4.875 1.5 1.5 4.875 1.5 9C1.5 13.125 4.875 16.5 9 16.5C13.125 16.5 16.5 13.125 16.5 9C16.5 8.55 16.2 8.25 15.75 8.25Z" fill="#7A7A97"/>
</g>
</svg>
