<svg width="24" height="24" viewBox="0 0 24 24" fill="none" xmlns="http://www.w3.org/2000/svg">
  <g clip-path="url(#clip0_15686_156911)">
    <path fill-rule="evenodd" clip-rule="evenodd"
      d="M4.64017 3H19.8598C20.7657 3 21.5 3.73433 21.5 4.64017V19.8598C21.5 20.7657 20.7657 21.5 19.8598 21.5H4.64017C3.73433 21.5 3 20.7657 3 19.8598V4.64017C3 3.73433 3.73433 3 4.64017 3ZM12.6137 8.98288C14.232 9.20769 14.794 9.97181 15.0075 11.7138L15.0076 11.714C15.0076 11.714 17.2329 12.5007 16.9743 14.9844C16.7158 17.468 14.1067 18.3494 12.4227 18.381C12.4227 18.381 6.96859 18.8106 6.96859 12.3545C6.96859 6.27446 11.4265 6.11329 12.2505 6.11329C13.0744 6.11329 16.281 6.11713 17.5323 9.92704L16.491 10.2305C16.491 10.2305 15.8055 7.18489 12.5351 7.18489C9.26464 7.18489 7.89356 9.37637 8.06209 12.3996C8.23062 15.4229 9.11594 17.0525 12.2697 17.2547C15.4234 17.457 17.2103 14.254 14.9851 12.8942C14.9851 12.8942 14.8027 15.5688 12.2697 15.4452C9.73664 15.3215 9.96145 13.2424 9.96145 13.2424C9.96145 13.2424 10.1525 10.7361 13.895 11.388C13.895 11.388 13.76 10.0167 12.5351 10.0393C11.3101 10.0618 11.0067 10.7249 11.0067 10.7249L10.1076 10.1068C10.1076 10.1068 10.9953 8.75807 12.6137 8.98288ZM11.0853 13.512C11.1752 14.3999 12.3889 14.3661 12.3889 14.3661H12.3891C12.3891 14.3661 13.8838 14.4448 13.9287 12.523C13.9287 12.523 13.2093 12.3545 12.5688 12.4106C11.9283 12.4668 10.9955 12.6241 11.0853 13.512Z"
      fill="#848598" />
  </g>
  <defs>
    <clipPath id="clip0_15686_156911">
      <rect x="3" y="3" width="18.5" height="18.5" rx="3" fill="#848598" />
    </clipPath>
  </defs>
</svg>
