<svg width="24" height="24" viewBox="0 0 24 24" fill="none" xmlns="http://www.w3.org/2000/svg">
  <path fill-rule="evenodd" clip-rule="evenodd"
    d="M6.83798 2.8H17.912C19.9316 2.8 21.625 4.4643 21.625 6.48667V17.5804C21.625 19.6357 19.9316 21.3 17.912 21.3H6.83798C4.78635 21.3 3.125 19.6357 3.125 17.5804V6.48667C3.125 4.4643 4.78635 2.8 6.83798 2.8ZM10.9139 10.4632H10.8385V12.0215C10.663 11.9709 10.5124 11.946 10.3369 11.946C9.38316 11.946 8.63063 12.6999 8.63063 13.6304C8.63063 13.9531 8.72987 14.2624 8.8977 14.5245C8.72945 14.2621 8.62992 13.9523 8.62992 13.6296C8.62992 12.6999 9.38246 11.9452 10.3361 11.9452C10.5117 11.9452 10.6623 11.9701 10.8378 12.0207V10.4623C8.83028 10.5129 7.24988 12.1467 7.24988 14.1322C7.24988 15.0875 7.62654 15.9675 8.22841 16.621L8.22921 16.6218C8.76048 16.9768 9.38978 17.2143 10.0653 17.2651C9.38974 17.2143 8.7604 16.9768 8.22911 16.6218C8.90631 17.3259 9.86001 17.7779 10.9139 17.7779C12.9463 17.7779 14.602 16.1441 14.602 14.133V10.0103C15.3545 10.6888 16.3331 11.0155 17.3373 10.94V8.9546C17.1369 9.00517 16.9358 9.00518 16.7603 8.95463V8.9546C16.2082 8.87913 15.7313 8.57726 15.3298 8.12526C15.3297 8.12522 15.3297 8.12517 15.3296 8.12512C14.8528 7.59767 14.5772 6.89363 14.602 6.21449L14.0499 6.21449L14.0498 6.21449L12.6194 6.21449V14.1322C12.6194 15.0619 11.8669 15.8165 10.9132 15.8165C10.3613 15.8165 9.85987 15.5407 9.53368 15.1132C9.53373 15.1132 9.53378 15.1132 9.53383 15.1132C9.33347 14.8371 9.23249 14.4846 9.23249 14.133C9.23249 13.2033 9.98503 12.4486 10.9139 12.4486C11.0894 12.4486 11.2649 12.4735 11.4156 12.5241V10.5129C11.2649 10.488 11.0894 10.4623 10.9139 10.4623V10.4632ZM16.2174 10.4392C15.402 10.3833 14.6167 10.0635 14.0002 9.50776V9.50785C14.6167 10.0635 15.402 10.3833 16.2174 10.4392Z"
    fill="#848598" />
</svg>
