<svg width="40" height="40" viewBox="0 0 40 40" fill="none" xmlns="http://www.w3.org/2000/svg">
<rect y="40" width="40" height="40" rx="20" transform="rotate(-90 0 40)" fill="url(#paint0_radial_719_11065)"/>
<path d="M12.0588 11.5972H16.1765C17.3176 11.5972 18.2353 12.5148 18.2353 13.656V23.3737C18.2353 23.8325 18.0706 24.2913 17.7882 24.656L15.7294 27.2325C14.9059 28.256 13.3294 28.256 12.5059 27.2325L10.4471 24.656C10.1647 24.2913 10 23.8325 10 23.3737V13.656C10 12.5148 10.9176 11.5972 12.0588 11.5972Z" fill="white"/>
<path opacity="0.4" d="M27.495 12.3383L29.5539 14.903C29.8362 15.2678 30.0009 15.7266 30.0009 16.1972V25.9148C30.0009 27.056 29.0833 27.9736 27.9421 27.9736H23.8244C22.6833 27.9736 21.7656 27.056 21.7656 25.9148V16.1972C21.7656 15.7266 21.9303 15.2678 22.2127 14.903L24.2715 12.3383C25.095 11.303 26.6715 11.303 27.495 12.3383Z" fill="white"/>
<defs>
<radialGradient id="paint0_radial_719_11065" cx="0" cy="0" r="1" gradientUnits="userSpaceOnUse" gradientTransform="translate(11.0711 42.9614) rotate(56.7251) scale(39.8014)">
<stop stop-color="#23C562"/>
<stop offset="0.553883" stop-color="#77D21C"/>
<stop offset="1" stop-color="#17DCD0"/>
</radialGradient>
</defs>
</svg>
