<svg width="24" height="24" viewBox="0 0 24 24" fill="none" xmlns="http://www.w3.org/2000/svg">
  <rect x="3" y="3" width="18" height="18" rx="4" fill="#848598" />
  <path
    d="M16.1463 15.204C15.0888 13.7947 14.0314 12.3852 12.9748 10.9749C12.8203 11.139 12.6667 11.3021 12.5131 11.4662C13.5469 12.8452 14.5817 14.2242 15.6155 15.6022C15.6345 15.6277 15.6535 15.6525 15.6723 15.678L14.3368 15.678L11.7979 12.2286C11.6433 12.3927 11.4888 12.5578 11.3352 12.7219C11.945 13.5488 12.5538 14.3768 13.1627 15.204C13.4426 15.5834 13.7212 15.9626 14.0011 16.3421L17 16.3421C16.7146 15.9626 16.43 15.5834 16.1465 15.204L16.1463 15.204ZM8.43661 7.66387L9.66103 7.66387L10.6929 9.03911C11.1604 9.66221 11.6281 10.2863 12.0956 10.9094C12.2492 10.7453 12.4028 10.5822 12.5566 10.4181C11.7021 9.27901 10.8474 8.1399 9.99297 7L7.12292 7C7.93109 8.09834 8.73905 9.19568 9.54722 10.2938C10.0062 10.9159 10.4644 11.5382 10.9225 12.1603C11.0761 11.9962 11.2297 11.8322 11.3842 11.6681L8.43661 7.66387Z"
    fill="#fff" stroke="#fff" stroke-width="0.23223" />
  <path
    d="M11.7979 12.2288C11.6433 12.3929 11.4887 12.558 11.3351 12.7221C10.5585 13.549 9.78156 14.377 9.00487 15.2042C8.64918 15.5836 8.2935 15.9628 7.93702 16.3423L7 16.3423C7.35569 15.9628 7.71137 15.5836 8.06785 15.2042C8.5619 14.6769 9.05713 14.1496 9.55117 13.6221C10.0084 13.1346 10.4654 12.648 10.9227 12.1605C11.0762 11.9964 11.2298 11.8324 11.3844 11.6683L11.7979 12.2288Z"
    fill="#fff" stroke="#fff" stroke-width="0.23223" />
  <path
    d="M16.7051 7C15.4617 8.32497 14.2183 9.64994 12.9749 10.9749C12.8203 11.139 12.6667 11.3021 12.5131 11.4662C12.3745 11.2813 12.2352 11.0953 12.0958 10.9094C12.2494 10.7453 12.403 10.5822 12.5568 10.4181C13.6257 9.27901 14.6945 8.13911 15.7635 7L16.7053 7L16.7051 7Z"
    fill="#fff" stroke="#fff" stroke-width="0.23223" />
</svg>
