<svg width="24" height="24" viewBox="0 0 24 24" fill="none" xmlns="http://www.w3.org/2000/svg">
  <rect x="3" y="3" width="18" height="18" rx="4" fill="#848598" />
  <path fill-rule="evenodd" clip-rule="evenodd"
    d="M8.15383 7.82648C7.03709 7.89405 6.17529 8.68765 6.10266 9.68492C6.04843 10.4296 6 11.2926 6 12C6 12.7074 6.04843 13.5704 6.10266 14.3151C6.17529 15.3124 7.03709 16.106 8.15383 16.1735C9.1286 16.2325 10.4402 16.2857 12 16.2857C13.5598 16.2857 14.8714 16.2325 15.8462 16.1735C16.9629 16.106 17.8247 15.3124 17.8973 14.3151C17.9516 13.5704 18 12.7074 18 12C18 11.2926 17.9516 10.4296 17.8973 9.68492C17.8247 8.68765 16.9629 7.89405 15.8462 7.82648C14.8714 7.7675 13.5598 7.71429 12 7.71429C10.4402 7.71429 9.1286 7.7675 8.15383 7.82648ZM11.7312 10.4828C11.3324 10.247 10.8 10.5023 10.8 10.9294V13.0707C10.8 13.4978 11.3324 13.7532 11.7312 13.5174L13.5272 12.4558C13.8928 12.2397 13.8928 11.7606 13.5273 11.5445L11.7312 10.4828Z"
    fill="white" />
</svg>
