<svg t="1718296757868" class="icon" viewBox="0 0 1024 1024" version="1.1"
  xmlns="http://www.w3.org/2000/svg" p-id="1660" width="200" height="200">
  <path
    d="M874.25 342.709H600.898V181.106c0-40.393-33.049-87.604-73.469-87.604h-44.067c-40.418 0-84.486 47.211-84.486 87.604v161.628H160.108c-16.173 0-37.25 13.231-37.25 29.379v146.912c0 16.173 19.518 29.403 35.665 29.403h14.69v226.996c0 64.667-24.121 121.435-24.121 121.435 0 16.173 24.222 26.259 40.369 26.259h631.794c16.173 0 57.674-10.086 57.674-26.259 0 0-28.849-58.982-28.849-124.352l1.584-224.053h14.689c16.173 0 35.666-13.231 35.666-29.379V372.137c0.023-16.199-11.621-29.428-27.769-29.428z m-22.235 138.034c0 8.073-6.614 14.689-14.688 14.689H187.374c-8.073 0-14.69-6.615-14.69-14.689v-71.959c0-8.074 6.615-14.69 14.69-14.69h261.328V188.451c0-28.648 18.06-48.266 46.709-48.266h10.512c28.649 0 43.564 19.618 43.564 48.266v204.083h287.815c8.073 0 14.688 6.615 14.688 14.689v73.52h0.025zM663.326 687.995h-7.345c-5.886 0-11.017 5.132-11.017 11.017v174.229H527.429V699.012c0-5.885-5.156-11.017-11.018-11.017h-7.344c-5.86 0-11.017 5.132-11.017 11.017v174.229H373.145V699.012c0-5.885-5.156-11.017-11.017-11.017h-4.199c-5.86 0-11.017 5.132-11.017 11.017v174.229H198.918s22.561-32.446 22.561-97.841V544.806h578.824V775.4c0 65.396 11.546 97.841 11.546 97.841H674.341V699.012c0-5.884-5.132-11.017-11.015-11.017z"
    fill="" p-id="1661"></path>
</svg>
