<?xml version="1.0" standalone="no"?><!DOCTYPE svg PUBLIC "-//W3C//DTD SVG 1.1//EN" "http://www.w3.org/Graphics/SVG/1.1/DTD/svg11.dtd"><svg t="1736927605755" class="icon" viewBox="0 0 1024 1024" version="1.1" xmlns="http://www.w3.org/2000/svg" p-id="8340" xmlns:xlink="http://www.w3.org/1999/xlink" width="200" height="200"><path d="M885.133061 459.88049L500.94498 75.67151a73.142857 73.142857 0 0 0-103.444898 0l-206.889796 206.889796a73.142857 73.142857 0 0 0 0 103.444898l384.208979 384.188082a73.142857 73.142857 0 0 0 103.444898 0l206.889796-206.889796a73.142857 73.142857 0 0 0 0-103.424zM456.620408 120.01698l384.20898 384.188081a10.44898 10.44898 0 0 1 0 14.795755l-206.889796 206.868898a10.44898 10.44898 0 0 1-14.774857 0L234.955755 341.660735a10.44898 10.44898 0 0 1 0-14.774857l206.889796-206.889796a10.44898 10.44898 0 0 1 14.753959 0z" fill="#000000" p-id="8341"></path><path d="M667.480816 458.501224a31.346939 31.346939 0 0 1 46.477062 41.942205l-2.15249 2.382367-104.489796 104.489796a31.346939 31.346939 0 0 1-46.497959-41.963102l2.152489-2.382368 104.489796-104.489795zM933.846204 898.612245c14.900245-0.292571 27.209143 13.500082 27.459918 30.82449 0.229878 16.300408-10.281796 29.884082-23.949061 31.660408l-2.591347 0.208979-531.14253 10.44898c-14.900245 0.292571-27.209143-13.500082-27.459919-30.82449-0.229878-16.300408 10.281796-29.884082 23.949062-31.660408l2.591346-0.20898 531.142531-10.448979zM385.358367 542.093061a31.346939 31.346939 0 0 1 46.477062 41.942204l-2.15249 2.382368L134.144 881.956571a31.346939 31.346939 0 0 1-46.497959-41.963102l2.15249-2.382367L385.358367 542.093061z" fill="#000000" p-id="8342"></path></svg>