<?xml version="1.0" standalone="no"?><!DOCTYPE svg PUBLIC "-//W3C//DTD SVG 1.1//EN" "http://www.w3.org/Graphics/SVG/1.1/DTD/svg11.dtd"><svg t="1736710833032" class="icon" viewBox="0 0 1024 1024" version="1.1" xmlns="http://www.w3.org/2000/svg" p-id="5143" xmlns:xlink="http://www.w3.org/1999/xlink" width="200" height="200"><path d="M544.206937 576.714874 163.141681 576.714874c-16.855967 0-30.70194 13.845973-30.70194 30.70194 0 16.855967 13.845973 30.70194 30.70194 30.70194L547.81893 638.118754c16.855967 0 30.70194-13.845973 30.70194-30.70194C578.52087 589.958848 564.674897 576.714874 544.206937 576.714874L544.206937 576.714874zM544.206937 702.532628 163.141681 702.532628c-16.855967 0-30.70194 13.845973-30.70194 30.70194s13.845973 30.70194 30.70194 30.70194L547.81893 763.936508c16.855967 0 30.70194-13.845973 30.70194-30.70194S564.674897 702.532628 544.206937 702.532628L544.206937 702.532628zM898.182246 130.633745 129.429747 130.633745c-68.025867 0-125.817754 54.179894-125.817754 125.817754l0 510.495003c0 71.63786 57.791887 125.817754 125.817754 125.817754l765.742504 0c71.63786 0 125.817754-57.791887 125.817754-125.817754L1020.990006 256.451499C1024 185.415638 966.208113 130.633745 898.182246 130.633745L898.182246 130.633745zM959.586126 766.946502c0 34.313933-27.089947 64.413874-64.413874 64.413874L129.429747 831.360376c-34.313933 0-64.413874-27.089947-64.413874-64.413874L65.015873 256.451499c0-34.313933 27.089947-64.413874 64.413874-64.413874l765.742504 0c34.313933 0 64.413874 27.089947 64.413874 64.413874L959.586126 766.946502 959.586126 766.946502 959.586126 766.946502zM833.768372 256.451499 704.338624 256.451499c-34.313933 0-64.413874 27.089947-64.413874 64.413874l0 125.817754c0 34.313933 27.089947 64.413874 64.413874 64.413874l125.817754 0c34.313933 0 64.413874-27.089947 64.413874-64.413874L894.570253 317.855379C898.182246 284.143445 867.480306 256.451499 833.768372 256.451499L833.768372 256.451499zM833.768372 416.583186c0 16.855967-13.845973 30.70194-30.70194 30.70194l-64.413874 0c-16.855967 0-30.70194-13.845973-30.70194-30.70194L707.950617 352.169312c0-16.855967 13.845973-30.70194 30.70194-30.70194l64.413874 0c16.855967 0 30.70194 13.845973 30.70194 30.70194L833.768372 416.583186 833.768372 416.583186z" p-id="5144" fill="#1e1e1e"></path></svg>