<?xml version="1.0" standalone="no"?><!DOCTYPE svg PUBLIC "-//W3C//DTD SVG 1.1//EN" "http://www.w3.org/Graphics/SVG/1.1/DTD/svg11.dtd"><svg t="1736927433943" class="icon" viewBox="0 0 1024 1024" version="1.1" xmlns="http://www.w3.org/2000/svg" p-id="5831" xmlns:xlink="http://www.w3.org/1999/xlink" width="200" height="200"><path d="M847.232 980.6848H163.9424c-52.0448 0-94.3872-42.3424-94.3872-94.3872V143.2576c0-52.0448 42.3424-94.3872 94.3872-94.3872h529.6896c8.1408 0 15.9488 3.2256 21.7344 8.9856 10.5472 10.5472 49.3312 46.6944 90.3936 84.9408 52.6592 49.0752 107.136 99.7888 126.8736 119.552 5.76 5.76 8.9856 13.568 8.9856 21.7344v602.2144c0 52.0448-42.3424 94.3872-94.3872 94.3872zM163.9424 110.3104c-18.176 0-32.9472 14.7968-32.9472 32.9472V886.272c0 18.176 14.7712 32.9472 32.9472 32.9472h683.2896c18.176 0 32.9472-14.7968 32.9472-32.9472V296.96c-24.2688-23.4752-72.832-68.7104-116.3264-109.2096-34.9696-32.5632-66.0736-61.5424-82.688-77.44H163.9424z" fill="#040000" p-id="5832"></path><path d="M612.2752 637.6192c-4.8896 0-9.8048-1.1776-14.2848-3.5328l-97.1264-51.072-97.1264 51.072a30.73536 30.73536 0 0 1-32.3584-2.3296c-9.472-6.8608-14.208-18.5088-12.2112-30.0544l18.56-108.16-78.5664-76.5952a30.73792 30.73792 0 0 1-7.7824-31.488c3.6096-11.1104 13.2352-19.2256 24.8064-20.9152l108.5952-15.7696L473.344 250.368c5.1712-10.496 15.8464-17.1264 27.5456-17.1264 11.6992 0 22.3744 6.6304 27.5456 17.1264l48.5632 98.4064 108.5952 15.7696c11.5712 1.6896 21.1968 9.7792 24.8064 20.9152 3.6096 11.1104 0.5888 23.3216-7.7824 31.488l-78.5664 76.5952 18.56 108.16c1.9712 11.52-2.7648 23.168-12.2112 30.0544a31.03232 31.03232 0 0 1-18.1248 5.8624z m-225.6896-221.184l45.568 44.416a30.6944 30.6944 0 0 1 8.832 27.1872l-10.752 62.72 56.32-29.6192c8.96-4.7104 19.6352-4.7104 28.5952 0l56.32 29.6192-10.752-62.72c-1.7152-9.9584 1.5872-20.1472 8.832-27.1872l45.568-44.416-62.976-9.1392c-10.0096-1.4592-18.6624-7.7312-23.1424-16.7936l-28.16-57.0624-28.16 57.0624c-4.48 9.0624-13.1328 15.36-23.1424 16.7936l-62.9504 9.1392zM905.0368 315.8784h-147.456c-51.1744 0-92.8-41.6256-92.8-92.8V76.928h61.44v146.1504c0 17.3056 14.08 31.36 31.36 31.36h147.456v61.44zM661.7344 814.5152H355.1744c-16.9728 0-30.72-13.7472-30.72-30.72s13.7472-30.72 30.72-30.72h306.56c16.9728 0 30.72 13.7472 30.72 30.72s-13.7472 30.72-30.72 30.72z" fill="#040000" p-id="5833"></path></svg>