<svg width="44" height="44" viewBox="0 0 44 44" fill="none" xmlns="http://www.w3.org/2000/svg">
<path fill-rule="evenodd" clip-rule="evenodd" d="M22 44C34.1503 44 44 34.1503 44 22C44 9.84974 34.1503 0 22 0C9.84974 0 0 9.84974 0 22C0 34.1503 9.84974 44 22 44Z" fill="#395DAE"/>
<path fill-rule="evenodd" clip-rule="evenodd" d="M35.5591 22V22.0007C35.6435 24.1081 34.8354 25.8567 33.3359 26.8058C32.0987 27.5879 30.5804 27.6496 29.3727 26.9668C28.0332 26.2095 27.2646 24.6722 27.2646 22.7499V20.1421C27.1789 20.2662 27.0852 20.4097 26.9835 20.576L23.8083 25.7333C22.7365 27.4772 21.7156 27.61 21.0475 27.4155C20.38 27.221 19.5841 26.5563 19.5841 24.4998V20.2185L13.8114 29.5055C15.8378 31.8021 18.776 33.2502 22.0416 33.2502C24.8388 33.2507 27.5298 32.177 29.5608 30.25C29.7985 30.025 30.1165 29.9053 30.4432 29.9179C30.7699 29.9306 31.0778 30.0744 31.2974 30.3171C31.7593 30.8228 31.7299 31.6136 31.2318 32.0831C28.726 34.4474 25.4618 35.75 22.0416 35.75C14.588 35.75 8.52344 29.5813 8.52344 22C8.52344 14.418 14.588 8.25 22.0409 8.25C29.4745 8.25 35.5243 14.3832 35.5584 21.9383L35.5591 21.9691V22ZM30.5698 24.7807C30.9982 25.0229 31.5619 24.9853 32.0405 24.6821V24.6828C32.7763 24.2173 33.1645 23.2615 33.107 22.0602C33.1066 22.0541 33.1071 22.0485 33.1076 22.0428C33.1079 22.0384 33.1083 22.034 33.1083 22.0294C33.108 22.0251 33.1074 22.021 33.1067 22.0168C33.1059 22.0111 33.105 22.0054 33.105 21.9992C33.105 15.7956 28.1437 10.749 22.045 10.749C15.9463 10.749 10.9844 15.7956 10.9844 21.9992C10.9821 23.8415 11.4288 25.6566 12.2858 27.2866L18.6871 16.9882C19.4596 15.8037 20.2549 15.7413 20.7864 15.8969C21.5898 16.1323 22.0129 16.913 22.045 18.2183V23.8913L24.9022 19.2499L24.9028 19.2488C25.3612 18.5022 26.5793 16.5182 28.1986 16.9909C29.1545 17.2692 29.7263 18.3001 29.7263 19.7489V22.7491C29.7263 23.7518 30.0255 24.4729 30.5698 24.7807Z" fill="#F6F7F8"/>
</svg>
