<svg width="44" height="44" viewBox="0 0 44 44" fill="none" xmlns="http://www.w3.org/2000/svg">
<path fill-rule="evenodd" clip-rule="evenodd" d="M22 44C34.1503 44 44 34.1503 44 22C44 9.84974 34.1503 0 22 0C9.84974 0 0 9.84974 0 22C0 34.1503 9.84974 44 22 44Z" fill="#000000"/>
<path fill-rule="evenodd" clip-rule="evenodd" d="M31.1243 21.2478C33.5736 17.5541 34.7982 15.6939 34.7982 15.6673C34.7982 15.6319 34.7791 15.6053 34.7409 15.5875L26.9922 11.9958C26.8776 11.9426 26.7535 11.916 26.6198 11.916C26.2856 11.916 26.0373 12.0402 25.875 12.2885L21.2344 19.2989L26.8203 27.7327C27.2405 27.1031 28.6751 24.9414 31.1243 21.2478ZM17.7227 31.2841V15.6802C17.7227 15.6624 17.7083 15.6403 17.6797 15.6137L10.3607 12.2082C10.0742 12.0752 9.86415 12.0087 9.73047 12.0087C9.54905 12.0087 9.41059 12.0707 9.3151 12.1949C9.21962 12.3191 9.17188 12.4698 9.17188 12.6472V27.8121C9.17188 28.0161 9.2411 28.2223 9.37956 28.4307C9.51801 28.6391 9.6875 28.7876 9.88802 28.8763L16.5482 31.9758C16.701 32.0467 16.8585 32.0822 17.0208 32.0822C17.25 32.0822 17.4243 32.0046 17.5436 31.8494C17.663 31.6942 17.7227 31.5058 17.7227 31.2841ZM26.2852 28.5454L18.6367 17.0254V25.0069L26.2852 28.5454ZM34.8359 17.2617V31.2826C34.8359 31.5043 34.7691 31.6839 34.6354 31.8214C34.5017 31.9588 34.3203 32.0275 34.0911 32.0275C33.862 32.0275 33.6376 31.9699 33.418 31.8546L27.1016 28.9281L34.8359 17.2617Z" fill="white"/>
</svg>
