<svg width="21" height="20" viewBox="0 0 21 20" fill="none" xmlns="http://www.w3.org/2000/svg">
<path d="M14.1857 13.5H17.1857V10.5H20.1857V15H17.1857V16.5H14.1857V15H11.1857V10.5H14.1857V13.5ZM0.685669 10.5H9.68567V19.5H0.685669V10.5ZM3.68567 13.5V16.5H6.68567V13.5H3.68567ZM0.685669 0H9.68567V9H0.685669V0ZM3.68567 3V6H6.68567V3H3.68567ZM11.1857 0H20.1857V9H11.1857V0ZM14.1857 3V6H17.1857V3H14.1857ZM17.1857 16.5H20.1857V19.5H17.1857V16.5ZM11.1857 16.5H14.1857V19.5H11.1857V16.5Z" fill="white"/>
</svg>
