<svg width="44" height="44" viewBox="0 0 44 44" fill="none" xmlns="http://www.w3.org/2000/svg"><path fill-rule="evenodd" clip-rule="evenodd" d="M23.662 4.037c-7.905 0-14.38 6.12-14.945 13.88a.747.747 0 0 1 .004.428l-.033.118c-.007.185-.01.371-.01.558 0 5.442 2.901 10.207 7.242 12.832l-.721 1.18a16.385 16.385 0 0 1-7.59-10.804l-1.882 6.566a6.627 6.627 0 0 0 .215 4.277l2.756 6.92a.75.75 0 1 1-1.394.554l-2.756-6.919a8.127 8.127 0 0 1-.262-5.246l2.993-10.45a.75.75 0 0 1 .061-.15c.634-8.46 7.699-15.127 16.322-15.127 9.039 0 16.367 7.327 16.367 16.367 0 6.291-3.55 11.753-8.756 14.493l.19-.533a8.33 8.33 0 0 0 .367-1.396c4.103-2.673 6.816-7.302 6.816-12.564 0-8.276-6.71-14.984-14.985-14.984zm3.741 18.74l1.964-1.963c.99-.99.99-2.596 0-3.586l-3.912-3.912a2.536 2.536 0 0 0-3.586 0l-3.912 3.912c-.99.99-.99 2.596 0 3.586l2.935 2.935c.28-.381.612-.708.979-.978l-2.936-2.935c-.45-.45-.45-1.18 0-1.63l3.912-3.912c.45-.45 1.18-.45 1.63 0l3.912 3.912c.45.45.45 1.18 0 1.63l-2.29 2.29c.27.093.534.212.79.358l.514.294zm-3.735 3.14a1.094 1.094 0 0 1 1.476-.38l.876.501a4.782 4.782 0 0 1 2.132 5.761L25.1 40.344a.75.75 0 0 0 1.413.505l3.051-8.546a6.283 6.283 0 0 0-2.8-7.567l-.876-.5a2.594 2.594 0 0 0-3.5.899l-9.208 15.07a.75.75 0 1 0 1.28.782l9.208-15.07z" fill="#06F"/></svg>