<svg width="44" height="44" viewBox="0 0 44 44" fill="none" xmlns="http://www.w3.org/2000/svg"><path d="M10.514 39h25.73A2.757 2.757 0 0 0 39 36.243V30.73H16.027v2.756A5.514 5.514 0 0 1 10.513 39zm0 0A5.514 5.514 0 0 1 5 33.486V7.756A2.757 2.757 0 0 1 7.757 5h19.297a2.757 2.757 0 0 1 2.757 2.757v4.594M19.703 25.216h-3.676v-.919l2.822-2.47c.543-.474.854-1.16.854-1.88v-.244a1.838 1.838 0 1 0-3.676 0m19.297-1.379l1.838 3.216m0 0L39 24.758m-1.838-3.216l-1.838 3.216m1.838-3.216L39 18.324m-28.027-5.973h12.865m.46 12.865a1.838 1.838 0 0 1-1.838-1.838v-3.675a1.838 1.838 0 1 1 3.675 0v3.675a1.838 1.838 0 0 1-1.838 1.838zm6.432 0a1.838 1.838 0 0 1-1.838-1.838v-3.675a1.838 1.838 0 1 1 3.676 0v3.675a1.838 1.838 0 0 1-1.838 1.838z" stroke="#06F" stroke-width="1.5" stroke-linecap="round"/></svg>