<svg width="44" height="44" viewBox="0 0 44 44" fill="none" xmlns="http://www.w3.org/2000/svg">
<g clip-path="url(#clip0_687_35980)">
<path d="M0 22C0 27.8348 2.31785 33.4306 6.44365 37.5564C10.5695 41.6822 16.1652 44 22 44C27.8348 44 33.4306 41.6822 37.5564 37.5564C41.6822 33.4306 44 27.8348 44 22C44 16.1652 41.6822 10.5695 37.5564 6.44365C33.4306 2.31785 27.8348 0 22 0C16.1652 0 10.5695 2.31785 6.44365 6.44365C2.31785 10.5695 0 16.1652 0 22H0Z" fill="#738BD8"/>
<path d="M8.20312 10.0684H35.7963V30.5768H8.20312V10.0684Z" fill="white"/>
<path d="M30.0013 40.0588L6.76086 37.0757C4.2502 36.7534 4.38039 28.8615 4.60125 26.3398L5.7199 13.5687C5.94076 11.047 8.91488 8.40297 11.4219 8.05312L31.4642 5.25649C33.9713 4.90673 39.08 14.3938 39.0306 16.9246L38.6578 36.0503M22.0024 12.9068C17.089 12.9068 13.6424 15.0151 13.6424 15.0151C15.5307 13.3285 18.8307 12.3568 18.8307 12.3568L18.519 12.0451C15.4207 12.1001 12.6157 14.2451 12.6157 14.2451C9.46239 20.8268 9.66404 26.5101 9.66404 26.5101C12.2307 29.8285 16.044 29.5901 16.044 29.5901L17.3457 27.9401C15.054 27.4451 13.6057 25.4101 13.6057 25.4101C13.6057 25.4101 17.0524 27.7568 22.0024 27.7568C26.9524 27.7568 30.399 25.4101 30.399 25.4101C30.399 25.4101 28.9507 27.4451 26.659 27.9401L27.9607 29.5901C27.9607 29.5901 31.774 29.8285 34.3407 26.5101C34.3407 26.5101 34.5424 20.8268 31.389 14.2451C31.389 14.2451 28.584 12.1001 25.4857 12.0451L25.174 12.3568C25.174 12.3568 28.474 13.3285 30.3624 15.0151C30.3624 15.0151 26.9157 12.9068 22.0024 12.9068M18.2074 19.8551C19.399 19.8551 20.3707 20.9001 20.3524 22.1835C20.3524 23.4485 19.399 24.5118 18.2074 24.5118C17.034 24.5118 16.0807 23.4485 16.0807 22.1835C16.0807 20.9001 17.0157 19.8551 18.2074 19.8551M25.8524 19.8551C27.044 19.8551 27.9974 20.9001 27.9974 22.1835C27.9974 23.4485 27.044 24.5118 25.8524 24.5118C24.679 24.5118 23.7257 23.4485 23.7257 22.1835C23.7257 20.9001 24.6607 19.8551 25.8524 19.8551Z" fill="#738BD8"/>
</g>
<defs>
<clipPath id="clip0_687_35980">
<rect width="44" height="44" fill="white"/>
</clipPath>
</defs>
</svg>
