<svg width="20" height="20" viewBox="0 0 20 20" fill="none" xmlns="http://www.w3.org/2000/svg">
<path fill-rule="evenodd" clip-rule="evenodd" d="M13.4556 1C13.536 2.04509 13.2036 3.0802 12.5289 3.88551C11.8744 4.69491 10.8827 5.16111 9.8382 5.1504C9.77188 4.1356 10.1139 3.13621 10.789 2.37229C11.4727 1.59769 12.4248 1.10771 13.4556 1ZM16.7604 7.14007C15.5591 7.87466 14.8198 9.16994 14.8017 10.5722H14.801C14.8025 12.1588 15.758 13.5907 17.2275 14.2088C16.9451 15.1218 16.5192 15.9846 15.9658 16.7653C15.2221 17.8708 14.4426 18.9509 13.2056 18.9715C12.617 18.9849 12.2198 18.8167 11.8059 18.6415C11.3741 18.4587 10.9241 18.2682 10.2197 18.2682C9.473 18.2682 9.00294 18.4648 8.54953 18.6543C8.15786 18.8181 7.77862 18.9766 7.24422 18.9988C6.06639 19.0419 5.16513 17.8188 4.39459 16.7229C2.85489 14.4859 1.65573 10.4182 3.26355 7.6504C4.01845 6.30116 5.43015 5.44491 6.9821 5.39495C7.65021 5.38138 8.29138 5.63749 8.85355 5.86204C9.2836 6.03382 9.66742 6.18713 9.9817 6.18713C10.2579 6.18713 10.6308 6.03996 11.0654 5.86843C11.7501 5.5982 12.5879 5.2675 13.4423 5.35664C14.7692 5.39781 15.9989 6.05875 16.7604 7.14007Z" fill="white"/>
</svg>
