<svg width="44" height="44" viewBox="0 0 44 44" fill="none" xmlns="http://www.w3.org/2000/svg"><path d="M25.66 9.59a1.91 1.91 0 0 0-1.909-1.908h-1.064a1.8 1.8 0 1 0-.464 3.538l2.102.56a1.8 1.8 0 0 1-.464 3.538h-1.064a1.91 1.91 0 0 1-1.91-1.909M23.274 6.727v.955M23.274 15.318v.955" stroke="#06F" stroke-width="1.5" stroke-linecap="round" stroke-linejoin="round"/><rect x="12.774" y="1" width="21" height="21" rx="10.5" stroke="#06F" stroke-width="1.5"/><path d="M23.274 33.455V22M28.373 28.354l3.375-3.375a2.863 2.863 0 0 1 4.05 0l.675.675-3.375 3.375a2.863 2.863 0 0 1-4.05 0l-.674-.675zm0 0l-5.062 5.062M16.66 25.818l6.613 3.818m-9.093-5.25l-5.787-3.34a2.864 2.864 0 0 0-3.912 1.048l-.954 1.653 5.786 3.34c1.37.792 3.121.322 3.912-1.047l.955-1.654zM12.867 36.073a1.91 1.91 0 0 1 1.772-2.618h17.27a1.91 1.91 0 0 1 1.772 2.618l-2.29 5.727a1.91 1.91 0 0 1-1.773 1.2H16.93a1.91 1.91 0 0 1-1.772-1.2l-2.291-5.727z" stroke="#06F" stroke-width="1.5" stroke-linecap="round" stroke-linejoin="round"/></svg>