<svg width="44" height="44" viewBox="0 0 44 44" fill="none" xmlns="http://www.w3.org/2000/svg"><path d="M22 12.91l5.267-6.02a3.692 3.692 0 0 1 2.772-1.254c2.366 0 4.132 2.224 3.559 4.519a3.636 3.636 0 0 1-3.528 2.754H22zm0 0l-5.267-6.02a3.692 3.692 0 0 0-2.772-1.254c-2.366 0-4.132 2.224-3.559 4.519a3.636 3.636 0 0 0 3.528 2.754H22z" stroke="#06F" stroke-width="1.5"/><path d="M36.545 38.364v-14.91a3.273 3.273 0 0 0-3.272-3.272h-5.819m-20 18.182v-14.91a3.273 3.273 0 0 1 3.273-3.272web.818M16.545 20.182H8.91a3.273 3.273 0 0 1-3.273-3.273v-.727a3.273 3.273 0 0 1 3.273-3.273h26.182a3.273 3.273 0 0 1 3.273 3.273v.727a3.273 3.273 0 0 1-3.273 3.273h-7.637M12.91 38.364H22m9.09 0H22m0 0V15.636" stroke="#06F" stroke-width="1.5" stroke-linecap="round"/></svg>