<svg width="44" height="44" viewBox="0 0 44 44" fill="none" xmlns="http://www.w3.org/2000/svg"><g clip-path="url(#clip0_1327_64615)"><path fill-rule="evenodd" clip-rule="evenodd" d="M29.231 36.388c.58.08 1.174.123 1.777.123 4.32 0 7.407-.72 9.433-1.457a14.658 14.658 0 0 0 2.255-1.024 8.442 8.442 0 0 0 .717-.458l.024-.018.018-.015.013-.01.005-.004h.002v-.002l-.467-.586.468.586a.75.75 0 0 0-.135-1.258l-1.704-.844a.269.269 0 0 1-.143-.191.386.386 0 0 1 .058-.3 12.694 12.694 0 0 0 2.205-7.17c0-6.174-4.39-11.324-10.218-12.498.388.59.743 1.203 1.063 1.835 4.45 1.5 7.655 5.708 7.655 10.664 0 2.346-.717 4.523-1.944 6.325-.592.868-.38 2.165.658 2.68l.472.233c-.393.196-.896.42-1.515.645-1.857.675-4.77 1.367-8.92 1.367-.062 0-.123 0-.183-.002-.505.487-1.037.948-1.594 1.379z" fill="#06F"/><path d="M33 21.5c0 8.837-7.163 16-16 16-11.294 0-16-3.765-16-3.765l2.654-1.314c.583-.289.738-1.048.358-1.575A15.928 15.928 0 0 1 1.001 21.5c0-8.837 7.163-16 16-16 8.836 0 16 7.163 16 16z" stroke="#06F" stroke-width="1.5" stroke-linejoin="round"/><path d="M23.027 14.531l2 3.464M16.703 18.18l2 3.464" stroke="#06F" stroke-width="1.5" stroke-linecap="round"/></g><defs><clipPath id="clip0_1327_64615"><path fill="#fff" transform="translate(0 4.5)" d="M0 0h44v35H0z"/></clipPath></defs></svg>