<svg width="44" height="44" viewBox="0 0 44 44" fill="none" xmlns="http://www.w3.org/2000/svg">
<path d="M7.5 41.6786H20.9365L21.9847 26.9298L25.7624 26.4591C26.1774 26.4591 26.3885 26.2238 26.8106 26.2238C28.7029 25.7531 30.5883 24.8195 32.2696 23.4153C32.6917 22.9446 33.3178 22.4817 33.7399 21.7756C35.6252 19.4378 36.6734 16.1586 36.4764 12.6518C36.2654 9.8433 35.0061 7.03477 32.9098 5.39516C30.1803 3.28483 26.1915 2.11592 22.2028 2.35127L12.544 3.52019C11.4887 3.74769 10.6516 4.6891 10.6516 5.85801L10.1275 12.1772L9.99523 13.772M9.6034 18.4964C14.6403 19.9007 19.4662 13.35 19.4662 13.35L17.3699 11.4751L28.4919 9.13725L26.1845 19.4378L24.2921 18.0335C24.2921 18.0335 22.4068 18.7318 19.4662 20.8421C13.755 24.9331 8.64759 30.1266 7.77738 37.5" stroke="#0066FF" stroke-width="1.5" stroke-linecap="round" stroke-linejoin="round"/>
</svg>
