<?xml version="1.0" encoding="UTF-8"?>
<svg width="18px" height="18px" viewBox="0 0 18 18" version="1.1" xmlns="http://www.w3.org/2000/svg" xmlns:xlink="http://www.w3.org/1999/xlink">
    <!-- Generator: Sketch 56 (81588) - https://sketch.com -->
    <title>加载</title>
    <desc>Created with Sketch.</desc>
    <style type="text/css">
        @keyframes load{
            0%{transform:rotate(0)}
            100%{transform:rotate(-360deg)}
        }
        #load{
            animation:load 1s  linear infinite;
            transform-origin:center center;
        }
    </style>
    <g id="load" stroke="none" stroke-width="1" fill="none" fill-rule="evenodd">
        <g id="借贷、划转" transform="translate(-1099.000000, -379.000000)" fill="#00A171" stroke="#00A171">
            <g id="Group-50-Copy-2备份-3" transform="translate(698.000000, 78.000000)">
                <g id="操作区" transform="translate(0.000000, 274.000000)">
                    <g id="加载" transform="translate(402.000000, 28.000000)">
                        <path d="M8.02962137,16.0231143 C3.61836042,16.0231143 0.0298137969,12.4345677 0.0298137969,8.02330676 C0.0298137969,3.61204583 3.61836042,0.0231143281 8.02962137,0.0231143281 C8.3471763,0.0231143281 8.60480482,0.280742868 8.60480482,0.598297784 C8.60480482,0.915852699 8.34717628,1.17348124 8.02962137,1.17348124 C4.25271891,1.17348124 1.18018071,4.24638596 1.18018071,8.02328842 C1.18018071,11.8001909 4.25271891,14.8727291 8.02962137,14.8727291 C11.8065238,14.8727291 14.8794285,11.8001909 14.8794285,8.02328842 C14.8794285,6.12472117 14.1203792,4.35909157 12.7423286,3.05256783 C12.5120243,2.83388229 12.5022931,2.46988898 12.7206121,2.23921817 C12.9389312,2.00816249 13.303291,1.9991827 13.5339618,2.21750172 C15.1434346,3.74384723 16.0298138,5.80568182 16.0298138,8.02328842 C16.0298138,12.4345677 12.4408823,16.0231143 8.02962137,16.0231143 Z" id="Path"></path>
                    </g>
                </g>
            </g>
        </g>
    </g>
</svg>
