<svg xmlns="http://www.w3.org/2000/svg" width="66" height="78" viewBox="0 0 66 78" fill="none"><path d="M64.9619 70.0061L65.211 48.3861L5.94971 39L6.19885 60.699C6.20822 61.3242 6.46719 61.9604 6.9198 62.4699C7.3724 62.9794 7.9823 63.3214 8.61767 63.422L62.543 71.9629C63.1784 72.0636 63.7883 71.9148 64.2409 71.5487C64.2928 71.5067 64.3422 71.4622 64.3889 71.4155C64.7496 71.0545 64.9536 70.5571 64.9619 70.0061Z" fill="#4C4C4E" stroke="#4C4C4E" stroke-width="0.4"></path><path d="M1.97021 62.4196C2.42282 62.9291 3.03271 63.2711 3.66809 63.3717L8.61784 58.4219C7.98246 58.3214 7.37257 57.9794 6.91996 57.4698L1.97021 62.4196Z" fill="#1E1E1F"></path><path d="M1.24902 65.6487C1.2584 66.274 1.51737 66.9101 1.96997 67.4196L6.91972 62.4699C6.46711 61.9604 6.20814 61.3242 6.19877 60.699L1.24902 65.6487Z" fill="#1E1E1F"></path><path d="M1 43.9497L1.24914 65.6487L6.19889 60.699L5.94975 39L1 43.9497Z" fill="#8C8C93" stroke="#8C8C93" stroke-width="0.4" stroke-linejoin="round"></path><path d="M3.66797 63.3717L57.5933 71.9126L62.5431 66.9629L8.61772 58.4219L3.66797 63.3717Z" fill="#1E1E1F"></path><path d="M39.2177 55.5838C39.035 55.7664 38.6503 55.8503 38.2461 55.7863L43.1958 50.8365C43.6 50.9006 43.9847 50.8167 44.1675 50.634L39.2177 55.5838Z" fill="#1E1E1F"></path><path d="M39.2726 55.5172C39.2573 55.5406 39.239 55.5628 39.2181 55.5837L44.1678 50.6341C44.1887 50.6131 44.207 50.5909 44.2223 50.5674L39.2726 55.5172Z" fill="#1E1E1F"></path><path d="M57.5933 71.9127C58.2286 72.0134 58.8385 71.8646 59.2911 71.4985L64.2409 66.5487C63.7883 66.9149 63.1784 67.0637 62.543 66.963L57.5933 71.9127Z" fill="#1E1E1F"></path><path d="M59.2913 71.4985C59.3432 71.4565 59.3925 71.412 59.4392 71.3653L64.3883 66.4162C64.3418 66.4627 64.2926 66.5069 64.241 66.5487L59.2913 71.4985Z" fill="#1E1E1F"></path><path d="M59.4395 76.3652C59.8002 76.0043 60.0041 75.5068 60.0124 74.9559L64.9622 70.0061C64.9539 70.557 64.7499 71.0545 64.3892 71.4155L59.4395 76.3652Z" fill="#8C8C93"></path><path d="M60.0122 74.9558L60.2613 53.3358L65.2111 48.386L64.962 70.0061L60.0122 74.9558Z" fill="#8C8C93"></path><path d="M60.2613 53.3358L60.0122 74.9559C60.0028 75.5782 59.7438 76.1323 59.2912 76.4984C58.8386 76.8646 58.2287 77.0134 57.5933 76.9127L3.66797 68.3717C3.03259 68.2712 2.4227 67.9292 1.97009 67.4196C1.51748 66.9101 1.25851 66.274 1.24914 65.6487L1 43.9498L18.187 46.6713L21.9888 52.7797C22.1375 53.055 22.5645 53.3025 23.015 53.3739L38.2463 55.7863C38.6968 55.8577 39.1232 55.7453 39.2725 55.5172L43.0743 50.6137L60.2613 53.3358Z" fill="#313132" stroke="#8C8C93" stroke-width="0.4"></path><mask id="1716549266914-u9s8ony" maskUnits="userSpaceOnUse" x="1" y="0" width="62" height="56" style="mask-type: alpha;"><path d="M60.4613 53.0619L62.8801 9.76917C62.8707 10.3915 62.6117 10.9456 62.1591 11.3117C61.7065 11.6779 61.0966 11.8267 60.4613 11.726L6.53589 3.18503C5.90051 3.08446 5.29061 2.74246 4.83801 2.23294C4.3854 1.72342 4.12643 1.08729 4.11706 0.462024L1.19995 43.6758L18.3869 46.3973L22.1887 52.5058C22.3375 52.7811 22.7644 53.0286 23.2149 53.0999L38 55.5C38.4505 55.5714 38.8768 55.459 39.0262 55.2309L42.828 50.3274L60.4613 53.0619Z" fill="white"></path></mask><g mask="url(#1716549266914-u9s8ony)"><path fill-rule="evenodd" clip-rule="evenodd" d="M18.8993 11.9562C15.176 11.3665 13.3144 11.0717 12.1572 12.06L13.5714 10.6458C14.7286 9.65747 16.5902 9.95232 20.3134 10.542L20.3135 10.542L47.9831 14.9244C51.7001 15.5132 53.5587 15.8075 54.7158 17.1621L54.7158 17.1621C55.8729 18.5168 55.8732 20.3972 55.8737 24.158L55.8736 24.1582L55.8738 24.1581C55.8752 34.4644 55.8772 52.3563 55.8756 63.1836L55.8755 63.1836C55.875 66.949 55.8747 68.8316 54.7176 69.8197L53.567 70.9703C54.4605 69.9221 54.4608 68.0522 54.4613 64.5978L54.4613 64.5978C54.4629 53.7706 54.461 35.8786 54.4596 25.5723L54.4595 25.5722C54.459 21.8115 54.4587 19.9311 53.3018 18.5765L53.3016 18.5764C52.1445 17.2218 50.286 16.9274 46.5688 16.3387L46.5689 16.3386L46.5688 16.3386L18.8993 11.9562L18.8993 11.9562ZM53.567 70.9703L53.3034 71.234C53.3989 71.1524 53.4866 71.0647 53.567 70.9703Z" fill="#313132"></path><path d="M12.1572 12.06L11.9804 11.8832C11.8855 11.9781 11.8825 12.1311 11.9736 12.2297C12.0648 12.3283 12.2175 12.3373 12.3196 12.2501L12.1572 12.06ZM18.8993 11.9562L18.8601 12.2032C18.9394 12.2157 19.0198 12.1895 19.0764 12.1326L18.8993 11.9562ZM13.5714 10.6458L13.4091 10.4557C13.4041 10.4599 13.3993 10.4644 13.3947 10.469L13.5714 10.6458ZM20.3134 10.542L20.2743 10.7889C20.3535 10.8015 20.4338 10.7753 20.4904 10.7186L20.3134 10.542ZM20.3135 10.542L20.3526 10.2951C20.2735 10.2825 20.1931 10.3087 20.1365 10.3654L20.3135 10.542ZM47.9831 14.9244L48.0222 14.6775L47.9831 14.9244ZM54.7158 17.1621L54.5257 17.3245C54.5904 17.4002 54.6937 17.4303 54.7889 17.4012C54.884 17.3721 54.9529 17.2894 54.9642 17.1905L54.7158 17.1621ZM54.7158 17.1621L54.9059 16.9997C54.8413 16.9241 54.7379 16.8939 54.6428 16.923C54.5476 16.9521 54.4787 17.0349 54.4674 17.1337L54.7158 17.1621ZM55.8737 24.158L56.108 24.2452C56.1184 24.2173 56.1237 24.1877 56.1237 24.158L55.8737 24.158ZM55.8736 24.1582L55.6393 24.0711C55.5983 24.1812 55.6396 24.3051 55.7385 24.3686C55.8375 24.4321 55.9673 24.4181 56.0504 24.335L55.8736 24.1582ZM55.8738 24.1581L56.1238 24.158C56.1238 24.0569 56.0629 23.9658 55.9694 23.9271C55.876 23.8884 55.7685 23.9098 55.697 23.9813L55.8738 24.1581ZM55.8756 63.1836L55.9633 63.4177C56.0609 63.3811 56.1255 63.2878 56.1256 63.1836L55.8756 63.1836ZM55.8755 63.1836L55.7878 62.9495C55.6902 62.9861 55.6255 63.0794 55.6255 63.1836L55.8755 63.1836ZM54.7176 69.8197L54.5552 69.6296C54.5503 69.6339 54.5454 69.6383 54.5408 69.643L54.7176 69.8197ZM54.4613 64.5978L54.3495 64.3742C54.2648 64.4165 54.2113 64.5031 54.2113 64.5978L54.4613 64.5978ZM54.4613 64.5978L54.5732 64.8214C54.6578 64.7791 54.7113 64.6925 54.7113 64.5978L54.4613 64.5978ZM54.4596 25.5723L54.7096 25.5723C54.7096 25.5155 54.6902 25.4604 54.6548 25.4161L54.4596 25.5723ZM54.4595 25.5722L54.2095 25.5722C54.2095 25.629 54.2288 25.6841 54.2643 25.7284L54.4595 25.5722ZM53.3018 18.5765L53.4919 18.4141C53.4832 18.404 53.4738 18.3946 53.4637 18.386L53.3018 18.5765ZM53.3016 18.5764L53.1115 18.7388C53.1202 18.7489 53.1296 18.7583 53.1397 18.7669L53.3016 18.5764ZM46.5688 16.3387L46.3921 16.1619C46.3256 16.2284 46.302 16.3265 46.3311 16.4159C46.3601 16.5053 46.4369 16.5709 46.5297 16.5856L46.5688 16.3387ZM46.5689 16.3386L46.7456 16.5154C46.8246 16.4364 46.8416 16.3147 46.7873 16.2171C46.733 16.1195 46.6206 16.0697 46.5118 16.0952L46.5689 16.3386ZM46.5688 16.3386L46.5297 16.5856C46.5617 16.5906 46.5944 16.5894 46.6259 16.582L46.5688 16.3386ZM18.8993 11.9562L18.9384 11.7093C18.8592 11.6967 18.7787 11.723 18.7221 11.7798L18.8993 11.9562ZM53.3034 71.234L53.1266 71.0572C53.0317 71.1521 53.0287 71.3051 53.1198 71.4036C53.2109 71.5022 53.3636 71.5112 53.4657 71.4241L53.3034 71.234ZM12.3196 12.2501C12.83 11.8141 13.5107 11.643 14.5604 11.6663C15.6149 11.6897 16.9912 11.9072 18.8601 12.2032L18.9384 11.7093C17.084 11.4156 15.6679 11.1908 14.5715 11.1664C13.4703 11.142 12.6416 11.3175 11.9949 11.8699L12.3196 12.2501ZM13.3947 10.469L11.9804 11.8832L12.334 12.2368L13.7482 10.8225L13.3947 10.469ZM20.3526 10.2951C18.4982 10.0014 17.0821 9.77656 15.9857 9.7522C14.8845 9.72774 14.0558 9.90332 13.4091 10.4557L13.7338 10.8359C14.2442 10.3999 14.9249 10.2288 15.9746 10.2521C17.0291 10.2755 18.4054 10.4929 20.2743 10.7889L20.3526 10.2951ZM20.1365 10.3654L20.1365 10.3654L20.4904 10.7186L20.4904 10.7186L20.1365 10.3654ZM48.0222 14.6775L20.3526 10.2951L20.2744 10.7889L47.9439 15.1713L48.0222 14.6775ZM47.9439 15.1713C49.809 15.4668 51.184 15.685 52.2387 15.9959C53.2855 16.3044 53.9896 16.6968 54.5257 17.3245L54.9059 16.9998C54.285 16.2728 53.4812 15.8408 52.3801 15.5163C51.287 15.1941 49.8742 14.9708 48.0222 14.6775L47.9439 15.1713ZM54.9642 17.1905L54.9642 17.1905L54.4674 17.1337L54.4674 17.1338L54.9642 17.1905ZM54.5257 17.3245C55.0619 17.9522 55.3395 18.7087 55.4806 19.7901C55.6228 20.8798 55.6235 22.271 55.6237 24.158L56.1237 24.158C56.1235 22.2842 56.1237 20.8548 55.9764 19.7254C55.8279 18.5877 55.5268 17.7267 54.9059 16.9997L54.5257 17.3245ZM55.6394 24.0708L55.6393 24.0711L56.1079 24.2454L56.108 24.2452L55.6394 24.0708ZM56.0504 24.335L56.0506 24.3349L55.697 23.9813L55.6968 23.9815L56.0504 24.335ZM55.6238 24.1581C55.6252 34.4644 55.6272 52.3564 55.6256 63.1835L56.1256 63.1836C56.1272 52.3563 56.1252 34.4644 56.1238 24.158L55.6238 24.1581ZM55.7878 62.9495L55.7878 62.9495L55.9633 63.4177L55.9633 63.4177L55.7878 62.9495ZM55.6255 63.1836C55.6253 65.0736 55.6245 66.4654 55.4826 67.5095C55.3413 68.5487 55.0657 69.1937 54.5552 69.6296L54.8799 70.0099C55.5266 69.4577 55.8297 68.6673 55.978 67.5768C56.1256 66.4912 56.1253 65.0589 56.1255 63.1836L55.6255 63.1836ZM54.5408 69.643L53.3902 70.7935L53.7438 71.1471L54.8944 69.9965L54.5408 69.643ZM53.7573 71.1325C54.2531 70.5508 54.484 69.7601 54.5976 68.7134C54.7112 67.6665 54.7111 66.3195 54.7113 64.5978L54.2113 64.5978C54.2111 66.3306 54.2105 67.6457 54.1005 68.6594C53.9905 69.6733 53.7744 70.3416 53.3768 70.8081L53.7573 71.1325ZM54.5731 64.8214L54.5732 64.8214L54.3495 64.3742L54.3495 64.3742L54.5731 64.8214ZM54.7113 64.5978C54.7129 53.7706 54.711 35.8786 54.7096 25.5723L54.2096 25.5723C54.211 35.8787 54.2129 53.7706 54.2113 64.5978L54.7113 64.5978ZM54.6548 25.4161L54.6547 25.416L54.2643 25.7284L54.2643 25.7285L54.6548 25.4161ZM54.7095 25.5722C54.7092 23.6985 54.7095 22.2691 54.5622 21.1397C54.4138 20.0021 54.1127 19.141 53.4919 18.4141L53.1116 18.7389C53.6478 19.3666 53.9253 20.123 54.0664 21.2044C54.2086 22.2941 54.2092 23.6853 54.2095 25.5722L54.7095 25.5722ZM53.4637 18.386L53.4635 18.3859L53.1397 18.7669L53.1398 18.767L53.4637 18.386ZM53.4917 18.414C52.8708 17.6871 52.067 17.255 50.9659 16.9305C49.8728 16.6083 48.46 16.3851 46.608 16.0917L46.5297 16.5856C48.3948 16.881 49.7699 17.0993 50.8246 17.4101C51.8713 17.7186 52.5754 18.1111 53.1115 18.7388L53.4917 18.414ZM46.7456 16.5154L46.7456 16.5154L46.3921 16.1619L46.3921 16.1619L46.7456 16.5154ZM46.6259 16.582L46.6259 16.582L46.5118 16.0952L46.5118 16.0952L46.6259 16.582ZM18.8602 12.2031L46.5297 16.5856L46.6079 16.0917L18.9384 11.7093L18.8602 12.2031ZM19.0764 12.1326L19.0764 12.1326L18.7221 11.7798L18.7221 11.7798L19.0764 12.1326ZM53.3902 70.7935L53.1266 71.0572L53.4802 71.4107L53.7438 71.1471L53.3902 70.7935ZM53.4657 71.4241C53.5712 71.334 53.6682 71.237 53.7573 71.1325L53.3768 70.8081C53.305 70.8924 53.2267 70.9707 53.141 71.0438L53.4657 71.4241Z" fill="#8C8C93"></path><path d="M11 18.7048C11 14.9337 11 13.0482 12.1571 12.0599C13.3143 11.0716 15.1759 11.3665 18.8992 11.9562C28.0875 13.4115 39.2336 15.1768 46.5688 16.3386C50.2859 16.9273 52.1444 17.2217 53.3015 18.5764C54.4587 19.931 54.4589 21.8114 54.4594 25.5722C54.4608 35.8786 54.4628 53.7705 54.4612 64.5977C54.4607 68.3631 54.4604 70.2458 53.3033 71.2339C52.1462 72.222 50.2865 71.9274 46.5671 71.3384C37.3778 69.8829 26.2282 68.117 18.8908 66.9549C15.1731 66.366 13.3143 66.0716 12.1571 64.7168C11 63.3619 11 61.4812 11 57.7197C11 47.4141 11 29.5261 11 18.7048Z" fill="#1E1E1F" stroke="#8C8C93" stroke-width="0.5"></path><path d="M17.0246 29.1532L32.2348 31.7397M47.1194 27.8792L17 22.7051" stroke="#8C8C93" stroke-width="0.8"></path></g></svg>