<svg width="20" height="20" fill="none" xmlns="http://www.w3.org/2000/svg"><path fill-rule="evenodd" clip-rule="evenodd" d="M3 8.998a6 6 0 0 0 6.001 5.999 6 6 0 0 0 6.002-5.999A6 6 0 0 0 9 3a6 6 0 0 0-6 5.998zm10.503 0A4.5 4.5 0 0 1 9 13.497a4.5 4.5 0 0 1-4.5-4.499A4.5 4.5 0 0 1 9.001 4.5a4.5 4.5 0 0 1 4.502 4.498z" fill="#4D5462"/><mask id="a" fill="#fff"><path d="M16.465 15.406a.75.75 0 1 1-1.054 1.067l-2.944-2.906L13.52 12.5l2.944 2.906z"/></mask><path d="M12.467 13.567 11.4 12.512l-1.055 1.068 1.068 1.054 1.054-1.067zM13.52 12.5l1.054-1.068-1.067-1.053-1.054 1.066L13.52 12.5zm2.95 3.967-1.066-1.055 1.067 1.055zm-.006-1.061-2.944-2.907-2.108 2.135 2.945 2.907 2.107-2.135zm-2.931-.785 1.054-1.067-2.134-2.109-1.054 1.067 2.134 2.109zm-1.067-1.054 2.944 2.906 2.108-2.135-2.944-2.906-2.108 2.135zm2.938 1.845a.75.75 0 0 1 1.06-.006l-2.107 2.135a2.25 2.25 0 0 0 3.18-.02l-2.133-2.109zm2.134 2.109a2.25 2.25 0 0 0-.02-3.183l-2.108 2.135a.75.75 0 0 1-.006-1.06l2.134 2.108z" fill="#4D5462" mask="url(#a)"/></svg>