<svg width="16" height="16" viewBox="0 0 16 16" fill="none" xmlns="http://www.w3.org/2000/svg">
<path d="M12.4987 4.79397V2.60147H3.52189V4.79397H6.83137V6.22639C4.14114 6.34738 2.11536 6.87769 2.11536 7.51396C2.11536 8.15024 4.14112 8.68052 6.83137 8.80152V13.3986H9.18928V8.80044C11.8691 8.67763 13.8846 8.14828 13.8846 7.51394C13.8846 6.87952 11.8691 6.35 9.18928 6.22735V4.79396H12.4987V4.79397ZM12.8711 7.38442C12.8711 7.80289 11.3047 8.15391 9.18928 8.25136L9.05257 8.25716H9.03747L8.90928 8.26188H8.8954C8.80006 8.26514 8.70356 8.26794 8.60584 8.27014H8.59978L8.4687 8.27286H8.43165L8.32822 8.27425H7.67317L7.57079 8.27286H7.53523L7.41293 8.2703H7.3995C7.25454 8.26707 7.11178 8.2626 6.97112 8.25716H6.96928L6.82925 8.2511C4.70329 8.15513 3.12678 7.80289 3.12678 7.38242C3.12678 6.96186 4.70356 6.61067 6.82925 6.51364V7.84344C7.19826 7.86268 7.59081 7.87322 7.99793 7.87322C8.41154 7.87322 8.81201 7.8625 9.18725 7.84238V6.5176C11.3045 6.6148 12.8711 6.96599 12.8711 7.38442Z" fill="#0E932E"/>
</svg>
